<svg xmlns="http://www.w3.org/2000/svg" viewBox="0 0 900 780" role="img" aria-labelledby="title desc">
  <title id="title">Hoorain's Collection logo</title>
  <desc id="desc">Elegant gold and black logo for Hoorain's Collection with stylized HC monogram, botanical accents, draped fabric, and brand name.</desc>
  <defs>
    <linearGradient id="gold" x1="0%" y1="0%" x2="100%" y2="100%">
      <stop offset="0%" stop-color="#c6a365"/>
      <stop offset="55%" stop-color="#9a7335"/>
      <stop offset="100%" stop-color="#d7bb87"/>
    </linearGradient>
    <linearGradient id="rose" x1="0%" y1="0%" x2="100%" y2="100%">
      <stop offset="0%" stop-color="#edd1cb"/>
      <stop offset="50%" stop-color="#d4aaa0"/>
      <stop offset="100%" stop-color="#c59589"/>
    </linearGradient>
    <filter id="shadow" x="-20%" y="-20%" width="140%" height="140%">
      <feDropShadow dx="0" dy="10" stdDeviation="14" flood-color="#6b4f2a" flood-opacity=".12"/>
    </filter>
  </defs>
  <rect width="900" height="780" fill="#fbf4ef"/>
  <path d="M535 95c95 18 157 79 180 177 17 73 8 159-32 244" fill="none" stroke="url(#gold)" stroke-width="3.2" stroke-linecap="round" opacity=".95"/>
  <text x="260" y="335" font-family="Georgia, 'Times New Roman', serif" font-size="250" fill="#141414">H</text>
  <path d="M301 246c37 13 82 37 113 69 19 19 39 29 72 26 16-2 31-7 48-15-13 21-31 35-56 41-35 8-66 1-91-22-33-31-58-49-104-57z" fill="#111"/>
  <text x="430" y="350" font-family="Georgia, 'Times New Roman', serif" font-size="238" fill="url(#gold)">C</text>
  <path d="M490 215h118" stroke="url(#gold)" stroke-width="4" stroke-linecap="round"/>
  <path d="M550 215v-18c0-8 8-13 15-9 7 4 7 13 0 18" fill="none" stroke="url(#gold)" stroke-width="3"/>
  <path d="M505 248l50-38 52 38" fill="none" stroke="url(#gold)" stroke-width="4" stroke-linecap="round" stroke-linejoin="round"/>
  <path d="M520 248h71" fill="none" stroke="url(#gold)" stroke-width="4" stroke-linecap="round"/>
  <g filter="url(#shadow)">
    <path d="M564 246c8 43 6 95 3 152-3 61-2 93 7 134 18 5 35 5 54-4-3-33-6-63-7-93-1-54 5-111-10-158z" fill="url(#rose)"/>
    <path d="M560 247c-5 47-14 100-31 153-22 65-51 111-83 154 25 11 49 13 71 11 29-45 54-91 71-143 17-54 25-109 26-175z" fill="url(#rose)"/>
    <path d="M571 254c-11 48-14 104-13 155 1 54 7 106 17 158-21 7-41 7-61 0-12-53-18-106-19-160-2-55 4-108 19-162z" fill="url(#rose)" opacity=".94"/>
  </g>
  <g stroke="url(#gold)" stroke-width="2.2" fill="none" stroke-linecap="round" stroke-linejoin="round">
    <path d="M222 290c-22-25-42-53-38-75 20 14 28 35 38 75z"/>
    <path d="M248 258c-15-23-24-49-18-70 17 14 22 35 18 70z"/>
    <path d="M261 311c17-19 39-29 59-29-16 19-34 29-59 29z"/>
    <path d="M220 335c-23-13-48-20-70-16 18 14 41 18 70 16z"/>
    <path d="M280 354c10-25 27-44 49-54-5 24-21 41-49 54z"/>
    <path d="M222 373c-21-7-42-8-61-1 18 9 38 9 61 1z"/>
    <path d="M278 401c4-21 14-38 29-50-1 20-10 37-29 50z"/>
    <path d="M214 438c30 6 57 17 84 35 30 20 60 45 103 44"/>
    <path d="M401 516c20 0 37 7 54 17"/>
    <path d="M279 450c-18-17-26-40-24-67 19 17 26 40 24 67z"/>
    <path d="M317 477c-7-22-5-42 7-61 9 20 7 42-7 61z"/>
  </g>
  <g fill="url(#gold)">
    <path d="M461 149l7 17 17 7-17 7-7 17-7-17-17-7 17-7z"/>
    <path d="M500 169l4 9 9 4-9 4-4 9-4-9-9-4 9-4z"/>
    <path d="M501 569l6 14 14 6-14 6-6 14-6-14-14-6 14-6z"/>
  </g>
  <text x="65" y="650" font-family="Georgia, 'Times New Roman', serif" font-size="122" letter-spacing="2" fill="#161616">HOORAIN’S</text>
  <line x1="90" y1="690" x2="210" y2="690" stroke="url(#gold)" stroke-width="2"/>
  <line x1="685" y1="690" x2="805" y2="690" stroke="url(#gold)" stroke-width="2"/>
  <text x="255" y="702" font-family="Georgia, 'Times New Roman', serif" font-size="54" letter-spacing="12" fill="url(#gold)">COLLECTION</text>
  <line x1="325" y1="726" x2="430" y2="726" stroke="url(#gold)" stroke-width="2"/>
  <line x1="470" y1="726" x2="575" y2="726" stroke="url(#gold)" stroke-width="2"/>
  <path d="M446 720l6 6 6-6 6 6-6 6-6-6-6 6-6-6z" fill="url(#gold)"/>
  <text x="175" y="760" font-family="Georgia, 'Times New Roman', serif" font-size="26" letter-spacing="6" fill="#604f3c">TIMELESS ELEGANCE, MADE FOR YOU</text>
</svg>
